{"title":"WolfCop 2014 BRRIP Xvid AC3-BHRG","uid":11888580,"size":1350391070,"categoryP":"video","categoryS":"movies","magnet":"?xt=urn:btih:e536e1d852126ee129c56e052d4fcfcd7b9bf854&amp;dn=WolfCop+2014+BRRIP+Xvid+AC3-BHRG&amp;tr=udp%3A%2F%2Ftracker.openbittorrent.com%3A80&amp;tr=udp%3A%2F%2Fopen.demonii.com%3A1337&amp;tr=udp%3A%2F%2Ftracker.coppersurfer.tk%3A6969&amp;tr=udp%3A%2F%2Fexodus.desync.com%3A6969","seeders":6,"leechers":1,"uploader":"xxxlavalxxx","files":3,"time":1430919400,"description":" &lt;a href=&quot;http://extraimago.com/image/2vD&quot; rel=&quot;nofollow&quot; target=&quot;_NEW&quot;&gt;http://extraimago.com/image/2vD&lt;/a&gt;\n &lt;a href=&quot;\nhttp://www.imdb.com/title/tt2781516/&quot; rel=&quot;nofollow&quot; target=&quot;_NEW&quot;&gt;\nhttp://www.imdb.com/title/tt2781516/&lt;/a&gt;\n\n\nIt's not unusual for alcoholic cop Lou to black out and wake up in unfamiliar surroundings, but lately things have taken a turn for the strange...and hairy. WolfCop is the story of one cop's quest to become a better man. One transformation at a time.\n\nDirector: Lowell Dean\nWriter: Lowell Dean (screenplay)\nStars: Leo Fafard, Amy Matysio, Sarah Lind \nGenres: Comedy | Horror\nCountry: Canada\nLanguage: English\n\n\nFormat: AVI\nFormat/Info: Audio Video Interleave\nFile size: 1.24 GiB\nDuration: 1h 18mn\nOverall bit rate: 2 249 Kbps\n\nVideo\nID: 0\nFormat: MPEG-4 Visual\nFormat profile: Advanced Simple@L5\nFormat settings, BVOP: 2\nFormat settings, QPel: No\nFormat settings, GMC: No warppoints\nFormat settings, Matrix: Default (H.263)\nCodec ID: XVID\nCodec ID/Hint: XviD\nDuration: 1h 18mn\nBit rate: 1 857 Kbps\nWidth: 720 pixels\nHeight: 400 pixels\nDisplay aspect ratio: 16:9\nFrame rate: 23.976 fps\nColor space: YUV\nChroma subsampling: 4:2:0\nBit depth: 8 bits\nScan type: Progressive\nCompression mode: Lossy\nBits/(Pixel*Frame): 0.269\nStream size: 1.02 GiB (83%)\nWriting library: XviD 1.2.1 (UTC 2008-12-04)\n\nAudio\nID: 1\nFormat: AC-3\nFormat/Info: Audio Coding 3\nMode extension: CM (complete main)\nFormat settings, Endianness: Big\nCodec ID: 2000\nDuration: 1h 18mn\nBit rate mode: Constant\nBit rate: 384 Kbps\nChannel(s): 6 channels\nChannel positions: Front: L C R, Side: L R, LFE\nSampling rate: 44.1 KHz\nBit depth: 16 bits\nCompression mode: Lossy\nStream size: 217 MiB (17%)\nAlignment: Aligned on interleaves\nInterleave, duration: 70 ms (1.67 video frames)\nInterleave, preload duration: 208 ms\nTitle: sonido-wolfcop-1080p -, 0 English\n\n &lt;a href=&quot;\nhttp://extraimago.com/image/2vF&quot; rel=&quot;nofollow&quot; target=&quot;_NEW&quot;&gt;\nhttp://extraimago.com/image/2vF&lt;/a&gt; &lt;a href=&quot;\nhttp://extraimago.com/image/2vH&quot; rel=&quot;nofollow&quot; target=&quot;_NEW&quot;&gt;\nhttp://extraimago.com/image/2vH&lt;/a&gt; &lt;a href=&quot;\nhttp://extraimago.com/image/2vk&quot; rel=&quot;nofollow&quot; target=&quot;_NEW&quot;&gt;\nhttp://extraimago.com/image/2vk&lt;/a&gt; &lt;a href=&quot;\nhttp://extraimago.com/image/2vo&quot; rel=&quot;nofollow&quot; target=&quot;_NEW&quot;&gt;\nhttp://extraimago.com/image/2vo&lt;/a&gt;","torrent":{"xt":"urn:btih:e536e1d852126ee129c56e052d4fcfcd7b9bf854","amp;dn":"WolfCop+2014+BRRIP+Xvid+AC3-BHRG","amp;tr":["udp%3A%2F%2Ftracker.openbittorrent.com%3A80","udp%3A%2F%2Fopen.demonii.com%3A1337","udp%3A%2F%2Ftracker.coppersurfer.tk%3A6969","udp%3A%2F%2Fexodus.desync.com%3A6969"],"infoHash":"e536e1d852126ee129c56e052d4fcfcd7b9bf854","infoHashBuffer":{"type":"Buffer","data":[229,54,225,216,82,18,110,225,41,197,110,5,45,79,207,205,123,155,248,84]},"announce":[],"urlList":[]}}